<svg viewBox="0 0 200 180" xmlns="http://www.w3.org/2000/svg" width="400" height="360">

  <!-- Tête - Mode Good -->
  <path
    d="M 35 110
       L 30 35 L 65 75
       Q 100 55, 135 75
       L 170 35 L 165 110
       C 175 140, 145 175, 100 175
       C 55 175, 25 140, 35 110 Z"
    fill="none"
    stroke="#00ffff"
    stroke-width="3"
    stroke-linecap="round"
    stroke-linejoin="round"
  />

  <!-- Oeil unique central -->
  <g>
    <path
      d="M 55 115
         Q 65 100, 100 85
         Q 135 100, 145 115
         Q 135 130, 100 145
         Q 65 130, 55 115 Z"
      fill="none"
      stroke="#00ffff"
      stroke-width="3"
      stroke-linecap="round"
      stroke-linejoin="round"
    />
    <!-- Pupille verticale -->
    <line
      x1="100"
      y1="95"
      x2="100"
      y2="135"
      stroke="#00ffff"
      stroke-width="3"
      stroke-linecap="round"
    />
  </g>

  <!-- Moustaches gauche -->
  <line x1="0" y1="100" x2="45" y2="115" stroke="#00ffff" stroke-width="2" stroke-linecap="round"/>
  <line x1="-5" y1="120" x2="45" y2="125" stroke="#00ffff" stroke-width="2" stroke-linecap="round"/>
  <line x1="0" y1="140" x2="45" y2="135" stroke="#00ffff" stroke-width="2" stroke-linecap="round"/>

  <!-- Moustaches droite -->
  <line x1="155" y1="115" x2="200" y2="100" stroke="#00ffff" stroke-width="2" stroke-linecap="round"/>
  <line x1="155" y1="125" x2="205" y2="120" stroke="#00ffff" stroke-width="2" stroke-linecap="round"/>
  <line x1="155" y1="135" x2="200" y2="140" stroke="#00ffff" stroke-width="2" stroke-linecap="round"/>
</svg>
